<?xml version="1.0" encoding="utf-8"?>
<!-- Generator: Adobe Illustrator 19.0.0, SVG Export Plug-In . SVG Version: 6.00 Build 0)  -->
<svg version="1.1" id="Layer_1" xmlns="http://www.w3.org/2000/svg" xmlns:xlink="http://www.w3.org/1999/xlink" x="0px" y="0px"
	 viewBox="0 0 425.197 425.197" enable-background="new 0 0 425.197 425.197" xml:space="preserve">
<g>
	<g>
		<path fill="#FFFFFF" d="M276.042,141.981c-0.705,2.33-1.474,7.123-0.729,10.383c-0.853-3.731-0.836-7.735-0.091-9.49
			C275.352,142.565,275.635,142.267,276.042,141.981z"/>
		<path fill="#FFFFFF" d="M280.967,36.505c-0.965-1.823-1.732-3.675-2.208-5.514C279.429,32.748,280.166,34.617,280.967,36.505z"/>
		
			<ellipse transform="matrix(-0.2133 -0.977 0.977 -0.2133 220.6196 362.8435)" fill="#FFFFFF" cx="256.397" cy="92.597" rx="3.834" ry="3.469"/>
		<path fill="#FFFFFF" d="M310.54,114.942l-0.201,0.373C310.361,115.25,310.437,115.114,310.54,114.942z"/>
		<path fill="#FFFFFF" d="M299.417,97.035c0.452,2.069-0.701,4.078-2.57,4.486c-1.87,0.408-3.757-0.937-4.208-3.006
			c-0.451-2.069,0.702-4.078,2.572-4.486C297.079,93.62,298.966,94.966,299.417,97.035z"/>
		<path fill="#FFFFFF" d="M231.752,92.99c-0.451-2.069,0.696-4.077,2.572-4.486c1.869-0.409,3.755,0.937,4.207,3.006
			c0.451,2.07-0.703,4.079-2.572,4.486C234.083,96.406,232.204,95.059,231.752,92.99z"/>
		<path fill="#FFFFFF" d="M280.58,93.514c0.452,2.069-0.695,4.077-2.572,4.486c-1.868,0.408-3.754-0.938-4.207-3.007
			c-0.451-2.069,0.702-4.078,2.572-4.486C278.249,90.098,280.128,91.446,280.58,93.514z"/>
		<path fill="#ED1C24" d="M154.087,200.403c0,0-23.131,20.75-41.943,23.615C120.096,216.302,153.322,200.324,154.087,200.403z"/>
		<path fill="#ED1C24" d="M165.231,205.232c-0.318,1.311-11.676,46.199-22.876,53.308
			C149.362,227.853,164.638,206.341,165.231,205.232z"/>
		<path fill="#ED1C24" d="M255.939,289.127l8.176-11.442l6.371,5.927l-4.748,13.625c-7.77,0.194-26.094,2.864-26.094,2.864
			l26.616,17.574l10.896,12.932l8.902,10.572l-50.166-26.309l-20.718-18.399l30.01-18.078L255.939,289.127z"/>
		<polygon fill="#ED1C24" points="208.966,270.285 259.384,223.058 241.843,270.136 206.815,279.852 		"/>
		<polygon fill="#ED1C24" points="236.111,229.835 221.945,227.582 214.068,240.712 196.431,249.413 188.063,237.349 
			274.969,181.236 261.54,217.287 		"/>
		<polygon fill="#ED1C24" points="273.994,178.893 229.914,197.31 209.671,194.751 201.627,209.956 179.301,218.164 
			177.989,191.201 274.819,171.341 276.181,177.989 		"/>
		<polygon fill="#ED1C24" points="276.181,177.989 274.819,171.341 278.182,170.652 299.001,180.02 296.016,189.604 		"/>
		<polygon fill="#ED1C24" points="274.416,272.332 265.771,270.123 271.985,215.133 287.927,233.573 275.357,269.623 		"/>
		<polygon fill="#ED1C24" points="272.678,213.443 272.201,213.247 276.901,181.525 276.918,181.432 297.908,212.481 
			297.974,212.577 293.9,222.17 		"/>
		<path fill="#C7B299" d="M161.02,139.733c17.515-7.674,24.693,23.907,26.968,37.885l-4.909,0.87
			c-18.417-3.717-19.304-29.869-19.304-29.869s-6.395,14.374,5.908,32.24l-13.775,2.439c-4.213-21.935-2.642-29.768,1.604-37.962
			C158.278,143.852,159.402,141.91,161.02,139.733z"/>
		<path fill="#C7B299" d="M256.415,131.175l5.953,9.392l-2.864,1.813c-6.469-8.68-41.076-11.323-46.122-10.49
			c8.837,1.061,10.609,5.922,9.701,6.727c-4.13,3.682-6.509,10.325-5.891,15.243c0.109,0.88-6.58,4.105-5.557,4.824
			c0.707,0.496,28.124,1.807,39.013,0.903c1.447-0.122-1.162,4.433-0.62,4.314l0.465,2.643l-48.247,8.543
			c-2.063-4.109-3.197-9.237-3.701-14.764c8.868-2.9,10.288-13.281,10.037-21.344c-2.192,9.127-6.702,12.549-10.361,13.767
			c-0.005-14.271,3.019-29.226,4.396-35.282c4.473-0.775,9.373-1.344,14.742-1.641c1.248-0.071,2.469-0.128,3.678-0.175
			l-8.714,5.633c0,0,28.773,5.748,40.46,8.52L256.415,131.175z"/>
		<path fill="#C7B299" d="M250.089,163.874c12.896-7.3,12.065-16.651,9.588-20.701l-0.173-0.792l2.864-1.813l4.605,7.263
			c0.877,1.895,3.225,4.731,4.633,6.352c-3.615,2.419-6.719,6.11-9.136,10.241l-11.977,2.122l-0.465-2.643
			C250.042,163.899,250.061,163.887,250.089,163.874z"/>
		<path fill="#C7B299" d="M276.337,141.136c-0.094,0.222-0.194,0.509-0.295,0.846c-0.407,0.286-0.689,0.584-0.82,0.893
			c-0.745,1.755-0.762,5.758,0.091,9.49l-0.113-0.079c-2.583-1.522-4.516-5.063-5.292-6.665l11.573-19.833l3.536,5.859l16.77,2.47
			c0.078,1.321,0.145,2.652,0.19,3.988C294.762,137.622,277.722,137.858,276.337,141.136z"/>
		<path fill="#C7B299" d="M298.375,170.541l-18.065-6.14l-1.559-0.527c0.062-1.606,0.058-3.198-0.051-4.646
			c0.537,0.473,1.145,0.819,1.804,0.997c5.362,1.446,21.609,0.979,21.609,0.979s-5.232-1.811-5.653-3.229
			c-0.663-3.04,4.155-14.012,5.57-18.18c0.248,8.805-0.084,16.982-0.084,16.982l3.026,8.685L298.375,170.541z"/>
		<path fill="#C7B299" d="M280.743,124.265l-0.103-0.061l-0.085-0.116l-0.036,0.045l-0.049-0.026l0.033,0.052l-12.105,16.152
			l-9.505-9.775l2.863-6.089l-10.904,2.38l-29.807-11.174c20.643-0.769,45.592,2.144,61.962,4.669L280.743,124.265z"/>
		<path fill="#C7B299" d="M293.26,122.049c4.541,0.833,7.233,1.456,7.266,1.599c0.282,1.299,0.527,2.793,0.729,4.401l-10.055,2.225
			l-9.242-5.316l-1.214-0.691l2.265-3.942C286.993,120.942,290.472,121.535,293.26,122.049z"/>
		<path fill="#A67C52" d="M135.97,152.961c1.795,14.104,5.575,26.46,10.336,32.447c-4.484,0.074-12.772-1.316-22.566-8.718
			c-2.804-2.123-5.02-4.981-6.71-8.373l5.361-2.359C127.248,158.932,129.078,155.632,135.97,152.961z"/>
		<path fill="#A67C52" d="M121.056,128.713c-0.303,0.223-0.613,0.447-0.915,0.67c3.885-0.318,20.751-5.495,37.226-6.728
			c-7.642,3.35-14.114,7.5-18.017,12.598c0,0-13.554,15.758-16.959,30.705l-5.361,2.359c-0.188-0.378-0.367-0.757-0.541-1.145
			c-4.404-9.865-4.676-23.778-2.151-37.352L121.056,128.713z"/>
		<path fill="#A67C52" d="M126.288,98.197c12.768-19.481,39.29-17.929,65.472-12.176c15.079,3.317,43.715,16.078,65.831,24.99
			c-15.665-2.412-32.943-2.789-48.689-0.817c-2.513,0.317-5.322,0.698-8.338,1.155c-14.898-0.605-54.948-0.235-79.508,17.365
			l-6.719,1.107C116.514,118.079,120.788,106.597,126.288,98.197z"/>
		<path fill="#A67C52" d="M182.353,57.362c5.898-5.489,24.897-15.198,34.055-19.725c-1.571,7.558-2.871,15.953-14.534,21.818
			c-13.136,6.605-15.865,6.08-15.865,6.08l-6.79-3.429C180.236,60.06,181.299,58.347,182.353,57.362z"/>
		<path fill="#A67C52" d="M335.316,121.345c-9.284-1.09-26.406-1.203-40.866-3.429c0,0-0.006,0.001-0.008-0.006
			c-12.47-3.393-23.816-9.282-35.694-15.6c19.621-0.604,39.077,8.006,51.581,13.029c1.493-0.004,2.871-0.066,4.164-0.168
			c12.393-0.971,16.768-6.001,30.238-9.465c22.23-5.705,18.73,5.152,16.996,7.07C356.626,118.622,346.649,122.676,335.316,121.345z"
			/>
		<path fill="#A67C52" d="M298.719,87.499c-14.178-5.017-47.367-14.039-84.257-5.215c-11.503-3.754-25.561-7.48-39.632-8.775
			c1.148-3.607,2.698-7.983,4.389-11.402l6.79,3.429c0,0,12.184,4.443,26.38-3.329c8.974-3.454,11.4-29.836,17.352-33.572
			c12.595-7.916,37.717-5.236,40.73-2.97c0,0,5.147,19.711,17.281,29.061C293.556,59.193,297.111,76.367,298.719,87.499z"/>
		<polygon fill="#A67C52" points="345.362,292.378 319.531,370.318 314.872,374.406 336.757,289.614 		"/>
		<polygon fill="#A67C52" points="120.721,337.522 151.349,379.542 147.104,378.615 102.977,326.444 193.426,355.165 		"/>
		<path fill="#A67C52" d="M267.685,344.442l11.43,64.783c0,0-1.682,2.053-3.229,3.947c-2.556-0.938-5.123-1.063-7.55-2.156
			c0.712-18.597-0.808-53.004-1.497-67.005c-0.192-3.858-0.318-6.171-0.318-6.171L267.685,344.442z"/>
	</g>
	<path d="M32.291,349.101l243.805,64.4l117.277-115.812l-27.813-33.801l-26.03-6.748l-2.19-31.199l-33.916-6.82
		c1.264-3.71,2.171-6.326,2.527-7.261c-0.061-1.714-5.104-6.16-4.734-8.124c1.147-6.044,2.609-9.728,4.845-14.284
		c0.574-1.172,2.421-0.617,2.64-1.742c1.273-6.565,3.598-12.321,2.375-12.854l-7.342-2.494l4.022-4.288l2.331-2.474l-3.92-10.658
		c17.581-7.688,61.165-27.445,61.858-44.956c1.464-12.61-17.942-11.162-28.284-7.304c-9.538,3.563-16.747,9.068-25.468,10.045
		c-0.906,0.101-1.827,0.152-2.77,0.149c0.013-4.257-4.16-18.126-5.249-21.679c-1.27-12.395-9.892-32.537-9.268-34.13
		c0.494-1.266-10.691-10.479-16.021-20.563c-0.965-1.823-1.732-3.675-2.208-5.514c-0.293-1.123-0.482-2.24-0.529-3.343
		c-0.68-15.648-36.834-10.417-50.192-5.617c-4.042,1.458-6.546,3.515-8.199,5.969c-15.356,9.824-37.098,18.425-44.231,26.645
		c-0.001,0.002-0.003,0.004-0.004,0.005c-0.726,0.838-1.302,1.671-1.704,2.502c-2.762,5.739-6.11,11.868-8.353,15.871
		c-17.105-0.13-33.373,4.197-44.139,17.396c-0.454,0.558-0.899,1.13-1.334,1.72c-2.216,3.004-4.173,6.417-5.813,10.306
		c-12.202,28.927-11.482,51.96-4.271,67.356c3.46,7.393,8.414,13.025,14.151,16.707c8.459,5.426,16.552,8.564,24.621,8.537
		c-18.864,5.912-53.973,19.983-58.568,43.729c26.36-0.207,45.924-10.414,58.411-21.678c-2.121,3.874-4.276,8.112-6.278,12.555
		l-69.483,28.955l5.765,31.144l-31.805,20.797L32.291,349.101z M154.087,200.403c0,0-23.131,20.75-41.943,23.615
		C120.096,216.302,153.322,200.324,154.087,200.403z M191.76,86.021c15.079,3.317,43.715,16.078,65.831,24.99
		c-15.665-2.412-32.943-2.789-48.689-0.817c-2.513,0.317-5.322,0.698-8.338,1.155c-14.898-0.605-54.948-0.235-79.508,17.365
		c-0.303,0.223-0.613,0.447-0.915,0.67c3.885-0.318,20.751-5.495,37.226-6.728c-7.642,3.35-14.114,7.5-18.017,12.598
		c0,0-13.554,15.758-16.959,30.705c4.857-7.025,6.687-10.326,13.579-12.997c1.795,14.104,5.575,26.46,10.336,32.447
		c-4.484,0.074-12.772-1.316-22.566-8.718c-2.804-2.123-5.02-4.981-6.71-8.373c-0.188-0.378-0.367-0.757-0.541-1.145
		c-4.404-9.865-4.676-23.778-2.151-37.352c2.177-11.741,6.451-23.223,11.951-31.624C139.056,78.716,165.578,80.268,191.76,86.021z
		 M212.322,121.282c0,0,28.773,5.748,40.46,8.52l3.633,1.374l5.953,9.392l4.605,7.263c0.877,1.895,3.225,4.731,4.633,6.352
		c-3.615,2.419-6.719,6.11-9.136,10.241l-11.977,2.122l-48.247,8.543c-2.063-4.109-3.197-9.237-3.701-14.764
		c8.868-2.9,10.288-13.281,10.037-21.344c-2.192,9.127-6.702,12.549-10.361,13.767c-0.005-14.271,3.019-29.226,4.396-35.282
		c4.473-0.775,9.373-1.344,14.742-1.641c1.248-0.071,2.469-0.128,3.678-0.175L212.322,121.282z M253.006,93.336
		c-0.451-2.069,0.703-4.078,2.573-4.486c1.869-0.409,3.756,0.937,4.207,3.006c0.452,2.069-0.702,4.078-2.571,4.486
		C255.344,96.751,253.458,95.406,253.006,93.336z M235.959,95.996c-1.876,0.41-3.755-0.937-4.207-3.006
		c-0.451-2.069,0.696-4.077,2.572-4.486c1.869-0.409,3.755,0.937,4.207,3.006C238.982,93.58,237.828,95.588,235.959,95.996z
		 M298.719,87.499c-14.178-5.017-47.367-14.039-84.257-5.215c-11.503-3.754-25.561-7.48-39.632-8.775
		c1.148-3.607,2.698-7.983,4.389-11.402c1.018-2.046,2.08-3.759,3.135-4.744c5.898-5.489,24.897-15.198,34.055-19.725
		c-1.571,7.558-2.871,15.953-14.534,21.818c-13.136,6.605-15.865,6.08-15.865,6.08s12.184,4.443,26.38-3.329
		c8.974-3.454,11.4-29.836,17.352-33.572c12.595-7.916,37.717-5.236,40.73-2.97c0,0,5.147,19.711,17.281,29.061
		C293.556,59.193,297.111,76.367,298.719,87.499z M276.373,90.508c1.876-0.41,3.755,0.938,4.207,3.006
		c0.452,2.069-0.695,4.077-2.572,4.486c-1.868,0.408-3.754-0.938-4.207-3.007C273.349,92.925,274.503,90.916,276.373,90.508z
		 M295.211,94.029c1.868-0.408,3.755,0.937,4.206,3.007c0.452,2.069-0.701,4.078-2.57,4.486c-1.87,0.408-3.757-0.937-4.208-3.006
		C292.187,96.446,293.341,94.437,295.211,94.029z M310.54,114.942l-0.201,0.373C310.361,115.25,310.437,115.114,310.54,114.942z
		 M336.834,121.48c5.458-2.917,9.314-6.832,7.362-10.671c-0.241,4.079-7.587,7.611-14.668,10.019
		c-9.645-0.685-23.25-1.092-35.078-2.913c0,0-0.006,0.001-0.008-0.006c-12.47-3.393-23.816-9.282-35.694-15.6
		c19.621-0.604,39.077,8.006,51.581,13.029c1.493-0.004,2.871-0.066,4.164-0.168c12.393-0.971,16.768-6.001,30.238-9.465
		c22.23-5.705,18.73,5.152,16.996,7.07C356.856,118.359,347.533,122.295,336.834,121.48z M301.254,128.048l-10.055,2.225
		l-9.242-5.316l-1.214-0.691l-0.103-0.061l-0.085-0.116l-0.036,0.045l-0.049-0.026l0.033,0.052l-12.105,16.152l-9.505-9.775
		l2.863-6.089l-10.904,2.38l-29.807-11.174c20.643-0.769,45.592,2.144,61.962,4.669c3.985,0.618,7.464,1.212,10.252,1.725
		c4.541,0.833,7.233,1.456,7.266,1.599C300.807,124.946,301.053,126.44,301.254,128.048z M301.976,138.103
		c-7.215-0.48-24.254-0.245-25.64,3.033c-0.094,0.222-0.194,0.509-0.295,0.846c-0.705,2.33-1.474,7.123-0.729,10.383l-0.113-0.079
		c-2.583-1.522-4.516-5.063-5.292-6.665l11.573-19.833l3.536,5.859l16.77,2.47C301.864,135.436,301.931,136.767,301.976,138.103z
		 M298.375,170.541l-18.065-6.14l-1.559-0.527c0.062-1.606,0.058-3.198-0.051-4.646c0.537,0.473,1.145,0.819,1.804,0.997
		c5.362,1.446,21.609,0.979,21.609,0.979s-5.232-1.811-5.653-3.229c-0.663-3.04,4.155-14.012,5.57-18.18
		c0.248,8.805-0.084,16.982-0.084,16.982l3.026,8.685L298.375,170.541z M314.872,374.406l21.885-84.792l8.605,2.764l-25.831,77.94
		L314.872,374.406z M293.9,222.17l-21.223-8.727l-0.477-0.196l4.7-31.723l0.017-0.093l20.99,31.049l0.066,0.096L293.9,222.17z
		 M274.416,272.332l-8.645-2.209l6.214-54.99l15.941,18.44l-12.569,36.05L274.416,272.332z M268.336,411.016
		c0.712-18.597-0.808-53.004-1.497-67.005c-0.192-3.858-0.318-6.171-0.318-6.171l1.165,6.602l11.43,64.783
		c0,0-1.682,2.053-3.229,3.947C273.33,412.234,270.763,412.11,268.336,411.016z M215.176,296.471l30.01-18.078l10.754,10.734
		l8.176-11.442l6.371,5.927l-4.748,13.625c-7.77,0.194-26.094,2.864-26.094,2.864l26.616,17.574l10.896,12.932l8.902,10.572
		l-50.166-26.309L215.176,296.471z M206.815,279.852l2.15-9.567l50.418-47.226l-17.541,47.077L206.815,279.852z M188.063,237.349
		l86.905-56.113l-13.429,36.051l-25.429,12.548l-14.166-2.253l-7.877,13.13l-17.637,8.701L188.063,237.349z M179.301,218.164
		l-1.312-26.963l96.83-19.859l3.363-0.689l20.818,9.368l-2.984,9.585l-19.835-11.616l-2.188,0.905l-44.08,18.417l-20.243-2.559
		l-8.044,15.206L179.301,218.164z M169.683,180.858l-13.775,2.439c-4.213-21.935-2.642-29.768,1.604-37.962
		c0.767-1.484,1.891-3.426,3.509-5.603c17.515-7.674,24.693,23.907,26.968,37.885l-4.909,0.87
		c-18.417-3.717-19.304-29.869-19.304-29.869S157.381,162.993,169.683,180.858z M165.231,205.232
		c-0.318,1.311-11.676,46.199-22.876,53.308C149.362,227.853,164.638,206.341,165.231,205.232z M102.977,326.444l90.448,28.721
		l-72.705-17.643l30.629,42.02l-4.245-0.927L102.977,326.444z M259.504,142.381l0.173,0.792c2.478,4.049,3.308,13.4-9.588,20.701
		c-0.027,0.013-0.047,0.025-0.061,0.028c-0.542,0.118,2.067-4.436,0.62-4.314c-10.889,0.904-38.306-0.407-39.013-0.903
		c-1.023-0.719,5.666-3.944,5.557-4.824c-0.618-4.918,1.761-11.561,5.891-15.243c0.908-0.804-0.864-5.665-9.701-6.727
		C218.428,131.058,253.035,133.701,259.504,142.381z"/>
	<g>
		<ellipse transform="matrix(-0.977 0.2134 -0.2134 -0.977 373.7898 145.3539)" cx="179.052" cy="92.847" rx="3.082" ry="2.557"/>
		<ellipse transform="matrix(-0.977 0.2132 -0.2132 -0.977 336.3867 177.6871)" cx="158.611" cy="106.985" rx="1.217" ry="1.198"/>
		<ellipse transform="matrix(-0.977 0.2134 -0.2134 -0.977 315.9329 156.1281)" cx="149.54" cy="95.115" rx="2.07" ry="2.191"/>
		<ellipse transform="matrix(-0.977 0.2134 -0.2134 -0.977 291.1134 188.7919)" cx="135.369" cy="110.105" rx="1.826" ry="1.908"/>
		<ellipse transform="matrix(-0.977 0.2132 -0.2132 -0.977 425.4262 160.0202)" cx="204.083" cy="102.954" rx="2.922" ry="3.258"/>
		<ellipse transform="matrix(-0.977 0.2134 -0.2134 -0.977 600.8099 345.6964)" cx="281.749" cy="205.272" rx="2.564" ry="1.983"/>
		<ellipse transform="matrix(-0.977 0.2133 -0.2133 -0.977 536.9566 367.0523)" cx="248.679" cy="212.491" rx="6.939" ry="5.147"/>
		<ellipse transform="matrix(-0.977 0.2133 -0.2133 -0.977 510.3322 470.6998)" cx="229.775" cy="262.879" rx="4.869" ry="4.626"/>
		<ellipse transform="matrix(-0.977 0.2132 -0.2132 -0.977 419.1854 346.5039)" cx="190.908" cy="195.856" rx="3.104" ry="3.645"/>
	</g>
	<g>
		
			<ellipse transform="matrix(-0.977 0.2133 -0.2133 -0.977 682.4957 426.9667)" fill="#A67C52" cx="318.215" cy="250.301" rx="6.094" ry="5.112"/>
		
			<ellipse transform="matrix(-0.977 0.2132 -0.2132 -0.977 351.2013 519.2788)" fill="#A67C52" cx="147.603" cy="278.575" rx="7.407" ry="6.818"/>
		
			<ellipse transform="matrix(-0.977 0.2133 -0.2133 -0.977 442.5968 582.6441)" fill="#A67C52" cx="189.861" cy="315.203" rx="5.04" ry="3.407"/>
		
			<ellipse transform="matrix(-0.977 0.2133 -0.2133 -0.977 797.3969 498.8371)" fill="#A67C52" cx="371.79" cy="292.431" rx="2.921" ry="3.288"/>
		
			<ellipse transform="matrix(-0.977 0.2134 -0.2134 -0.977 203.1958 617.7037)" fill="#A67C52" cx="68.263" cy="319.818" rx="6.208" ry="6.575"/>
		
			<ellipse transform="matrix(-0.977 0.2132 -0.2132 -0.977 255.1087 492.1663)" fill="#A67C52" cx="101.021" cy="259.836" rx="2.678" ry="2.192"/>
		
			<ellipse transform="matrix(-0.977 0.2133 -0.2133 -0.977 647.694 527.4068)" fill="#A67C52" cx="295.396" cy="298.643" rx="4.448" ry="4.537"/>
		
			<ellipse transform="matrix(-0.977 0.2134 -0.2134 -0.977 394.7624 450.0757)" fill="#A67C52" cx="173.086" cy="246.347" rx="3.336" ry="3.166"/>
		
			<ellipse transform="matrix(-0.977 0.2132 -0.2132 -0.977 549.0318 692.837)" fill="#A67C52" cx="237.155" cy="376.025" rx="6.208" ry="6.756"/>
	</g>
</g>
<line fill="none" stroke="#FFFFFF" stroke-width="2" stroke-miterlimit="10" x1="142.326" y1="229.652" x2="72.843" y2="258.607"/>
<line fill="none" stroke="#FFFFFF" stroke-width="2" stroke-miterlimit="10" x1="72.843" y1="258.607" x2="78.607" y2="289.751"/>
<line fill="none" stroke="#FFFFFF" stroke-width="2" stroke-miterlimit="10" x1="78.607" y1="289.751" x2="46.803" y2="310.548"/>
<line fill="none" stroke="#FFFFFF" stroke-width="2" stroke-miterlimit="10" x1="46.803" y1="310.548" x2="32.291" y2="349.101"/>
<line fill="none" stroke="#FFFFFF" stroke-width="2" stroke-miterlimit="10" x1="32.291" y1="349.101" x2="275.886" y2="413.173"/>
<line fill="none" stroke="#FFFFFF" stroke-width="2" stroke-miterlimit="10" x1="275.886" y1="413.173" x2="393.373" y2="297.689"/>
<line fill="none" stroke="#FFFFFF" stroke-width="2" stroke-miterlimit="10" x1="393.373" y1="297.689" x2="365.559" y2="263.889"/>
<line fill="none" stroke="#FFFFFF" stroke-width="2" stroke-miterlimit="10" x1="365.559" y1="263.889" x2="339.529" y2="257.14"/>
<line fill="none" stroke="#FFFFFF" stroke-width="2" stroke-miterlimit="10" x1="339.529" y1="257.14" x2="337.34" y2="225.941"/>
<line fill="none" stroke="#FFFFFF" stroke-width="2" stroke-miterlimit="10" x1="337.34" y1="223.941" x2="303.424" y2="217.121"/>
</svg>
