<?xml version="1.0" encoding="utf-8"?>
<!-- Generator: Adobe Illustrator 19.0.0, SVG Export Plug-In . SVG Version: 6.00 Build 0)  -->
<svg version="1.1" id="Layer_1" xmlns="http://www.w3.org/2000/svg" xmlns:xlink="http://www.w3.org/1999/xlink" x="0px" y="0px"
	 viewBox="0 0 425.2 425.2" style="enable-background:new 0 0 425.2 425.2;" xml:space="preserve">
<style type="text/css">
	.st0{fill:#FFFFFF;}
	.st1{fill:#0C120C;}
	.st2{fill:#EA2125;}
	.st3{fill:#FCCD97;}
	.st4{fill:#A97C50;}
	.st5{fill:#A7A9AC;}
</style>
<path class="st0" d="M-287.9-445.1"/>
<line class="st0" x1="1112.1" y1="-445.1" x2="1112.1" y2="534.9"/>
<g>
	<g>
		<path class="st1" d="M148.9,24.4c0,0,25.4,2.3,26,18.1c0,0,1.7,14.1-9,22c0,0-49.8,0.1-95.4,10.2c-9.7,2.1-25.2,0.4-39.5-3.4
			c0,0-0.6,48.6,128.7,63.8l-1.7,4.5c0,0-27.1-16.8-70-13.4c0,0,21.6,10.9,53.1,22.4c0,0-57.8-18.6-68.9-11.9
			c0,0,28.8,24.3,46.9,28.8c0,0-15.6,55.5,16.6,93.9c37.6,45,128.9,106.2,134.2,157.4c0,0,28.4-90.4,3.6-136.3l6.8-8.3l-11.5-14.1
			c0,0,37.8,19.8,50.3,15.2c0,0,5.6-25.4,4-37.3c0,0,10.2-9,10.7-15.8l-2.3-9.6l4-4l-4.5-10.2c0,0,11.9-4,13.6-5.1l-4.5-23.2
			c0,0,42.9,10.7,54.2,9c0,0-20.3-56.5-56.5-76.2l-7.3-74.5C330.1,26.7,226.2-6.1,148.9,24.4z"/>
		<path class="st2" d="M134.2,175.2c0,0-19.8,61,55.3,116.3c0,0,58.7,45.2,76.2,82.4c0,0,12.4-74-6.8-89.8c0,0-15.2-0.6-29.9-5.6
			c0,0,27.1,0.6,36.7-6.8l-12.4-11.9l1.7,6.8c0,0-42.4-6.8-72.3-50.3c0,0-22-26.5-22-45.2c0,0-6.2,36.1,23.7,69.5
			c0,0-39.5-32.2-39-67.2c0,0-5.6,30.5,5.6,51.4C151.1,224.9,132.5,210.2,134.2,175.2z"/>
		<path class="st3" d="M216.5,172.2c0,0-1.8,29.2,6.8,38.4c8.5,9.2,35,35.8,35,35.8s-3.4-18.8-1.1-29c0,0,5.3,24.8,18.1,33.9
			c0,0,21.1,11.4,28.6,10.2c7.2-1.2,8.3-10.5,7.5-28.2c0,0-2.6-8.7-7.2-10.2c0,0,12.8,0.8,15.4,1.1c0,0,5.6-4.5,1.9-7.9
			c0,0-29-3.8-36.1,3.4c0,0-0.8-13.6,12.8-18.8l21.5,7.9c0,0-18.8-20-29.7-22.2c0,0,10.9-12,17.3-12.8l-5.3,11.3
			c0,0,19.6-0.8,22.2,1.9l-1.1,4.9l10.5-4.5c0,0-6-23-5.3-29c0,0-7.5-3.4-10.9-3.4c0,0-12,3-17.7,6c0,0-11.7,9-23.7,0
			c0,0,10.2,0.4,12.8-5.6c0,0-19-4.9-21.8-20.1l-28.2-9.6l-9.8,10.2c0,0-3,38.8,19.6,56.8c0,0-20.3,1.9-26.4-23.7L216.5,172.2z"/>
		<path class="st3" d="M180.8,128.9l6.5,1.4c0,0-3.1,11.6-0.6,17.8c0,0,5.4-15,12.7-15.5l1.1,7.1c0,0-12.7,10.7-1.7,22.6l1.1-7.3
			l3.7-2l1.4,20.3c0,0-20.9-10.7-24-21.2C181.1,152,177.7,143,180.8,128.9z"/>
		<path class="st3" d="M184.7,177.4l-7.9,13c0,0,4.5,13.8,21.5,26.5l-10.2-20.9l12.7,7.6C200.8,203.7,186.2,190.7,184.7,177.4z"/>
		<path class="st0" d="M280.5,135.4l25.1,9.9c0,0-8.2,6.2-11.3,4.8C294.3,150,287.2,149.2,280.5,135.4z"/>
		<path class="st4" d="M53.4,84.8c0,0,5.6,2.8,28.2-0.6c0,0,57-15.2,106.7-0.6c0,0,124.2,30.5,174.5,70c0,0-7.9-23.2-17.5-32.2
			c0,0,23.2,18.6,35.6,47.6c0,0-122.7-58-155.5-66.6c0,0-71.9-24.1-137-12C88.5,90.5,67.4,95.7,53.4,84.8z"/>
		<path class="st4" d="M181.6,58.3c0,0,119.2,9.6,142.9,22l-4.5-44c0,0-61.6-21.5-129.3-11.3c0,0,28.8,0,40.7,5.1l-39,3.4
			c0,0,33.9,3.4,36.7,4.5l-38.4,6.8c0,0,32.8,3.4,35.6,5.6C226.2,50.4,193.2,53.8,181.6,58.3z"/>
		<path class="st5" d="M180.7,69.4c0,0,113.9,7.5,143.8,22.2l2.8,28.8C327.3,120.4,266.9,86.2,180.7,69.4z"/>
		<path class="st1" d="M329,299.4c0,0-11-7.3-8.8-33.9l-45.7-6.5C274.5,259,297.1,295.7,329,299.4z"/>
		<path class="st1" d="M302.2,202.3c0,0-16.8-8.6-21.6,6.8c0,0,9.7-6.2,17-1.1L302.2,202.3z"/>
		<path class="st5" d="M311.9,266.1c0,0-0.7,19.2,5,24.6c0,0-13.8-9-15.2-21.7C301.6,268.9,306.8,271.5,311.9,266.1z"/>
		<path class="st0" d="M295.5,205.7c0,0-3.8,4.9-3.6,7c0,0,7.3-2.6,20.8-0.9C309,209,302.1,206.9,295.5,205.7z"/>
		<path class="st1" d="M293.3,223c0,0,12-0.9,24.8,1.3l-7.3,6.6C310.8,230.9,301.4,225.1,293.3,223z"/>
		<path class="st1" d="M255,126.9c0,0-1.4,15.8,11.3,23.4c0,0-21.2-5.6-20.3-24L255,126.9z"/>
		<path class="st1" d="M183.7,256.5c0,0,45.9,29.7,82.1,15.2l-2.3,15.6C263.5,287.4,208.6,291.1,183.7,256.5z"/>
		<path class="st1" d="M222.3,290.9c0,0,31.6,13,48,4.5l0.6,12.4C270.9,307.9,240.9,306.7,222.3,290.9z"/>
	</g>
</g>
</svg>
