<?xml version="1.0" encoding="utf-8"?>
<!-- Generator: Adobe Illustrator 19.0.0, SVG Export Plug-In . SVG Version: 6.00 Build 0)  -->
<svg version="1.1" xmlns="http://www.w3.org/2000/svg" xmlns:xlink="http://www.w3.org/1999/xlink" x="0px" y="0px"
	 viewBox="0 0 442.011 442.011" enable-background="new 0 0 442.011 442.011" xml:space="preserve">
<g id="Layer_1">
</g>
<g id="color">
	<g id="XMLID_16_">
		<path id="XMLID_44_" fill="#D3202A" d="M174.298,246.704l-8.963-29.319c-0.322,0.122-0.653,0.221-0.998,0.282
			c-0.591,0.106-1.234,0.198-1.9,0.26l-0.158,34.595c1.277-0.138,2.509-0.325,3.657-0.531
			C169.22,251.403,172.07,249.624,174.298,246.704z"/>
		<path id="XMLID_20_" fill="#D3202A" d="M160.13,252.7l0.248-34.721c-1.214-0.056-2.421-0.295-3.496-0.841l-7.698,33.822
			C152.541,252.565,156.442,252.903,160.13,252.7z"/>
		<path id="XMLID_33_" fill="#6590CB" d="M163.793,214.139c5.219-0.937,5.555-10.382-0.267-25.429c0,0-7.615,11.083-7.703,18.719
			C155.736,215.064,160.37,214.753,163.793,214.139z"/>
		<path id="XMLID_35_" fill="#D3202A" d="M177.207,241.28l1.134-3.77c0.705-3,1.108-6.431,1.138-10.314l-11.12-12.37
			c-0.4,0.625-0.857,1.15-1.361,1.576l8.816,27.934C176.329,243.401,176.793,242.38,177.207,241.28z"/>
		<path id="XMLID_45_" fill="#FFFFFF" d="M146.509,53.559l-4.836,4.657c1.684,1.424,6.471,4.773,9.366,7.507
			c6.135-1.791,15.323-6.054,28.967-14.314c22.254-13.474,46.907-21.989,67.958-27.331l-2.067-1.424
			C212.825,28.474,171.839,38.248,146.509,53.559z"/>
		<path id="XMLID_46_" fill="#FFFFFF" d="M285.158,16.868c8.486-1.013,13.608-1.463,13.608-1.463S293.658,15.725,285.158,16.868z"/>
		<path id="XMLID_52_" fill="#FFFFFF" d="M245.896,22.655l2.067,1.424c14.923-3.787,28.031-5.978,37.195-7.211
			C275.548,18.016,261.619,19.889,245.896,22.655z"/>
		<path id="XMLID_19_" fill="#D3202A" d="M159.28,125.821c1.071-0.305,2.153-0.362,3.189-0.216c0.22-1.745,1.03-3.424,2.427-4.708
			c3.141-2.888,8.029-2.683,10.917,0.458c1.706,1.856,2.324,4.32,1.903,6.623c-0.157-1.613-0.812-3.192-1.993-4.477
			c-2.888-3.141-7.776-3.347-10.917-0.459c-0.83,0.763-1.429,1.675-1.843,2.648c2.724,0.568,5.049,2.587,5.863,5.449
			c0.305,1.072,0.354,2.152,0.205,3.187c0.049-0.045,0.089-0.095,0.139-0.139c4.564-4.035,11.447-3.741,15.671,0.548
			c-2.915-8.953-7.157-18.471-13.13-28.408c-3.391-2.013-7.63-2.13-11.147-0.269c-0.028,0.177-0.042,0.355-0.077,0.53
			c-0.012-0.155-0.036-0.309-0.054-0.463c-0.737,0.402-1.445,0.884-2.101,1.464c-1.366,1.208-2.36,2.673-2.997,4.256
			c2.706,0.746,5.045,3.023,5.934,6.152c0.766,2.696,0.278,5.414-1.09,7.433c0.546-1.65,0.622-3.527,0.091-5.394
			c-1.297-4.563-5.676-7.316-9.781-6.148c-1.679,0.478-3.045,1.543-3.993,2.941c0.788-2.383,2.567-4.291,4.992-4.98
			c1.097-0.312,2.211-0.336,3.283-0.129c0.296-2.719,1.545-5.341,3.756-7.296c0.403-0.356,0.83-0.666,1.265-0.956
			c-0.472-1.267-1.17-2.473-2.119-3.547c-4.174-4.721-11.384-5.165-16.105-0.991c-1.932,1.708-3.134,3.926-3.611,6.272
			c-0.228-2.945,0.685-5.941,2.693-8.291c0.022-0.765-0.056-1.544-0.277-2.32c-1.167-4.104-5.44-6.486-9.545-5.319
			c-1.679,0.478-3.063,1.48-4.04,2.774c0.845-2.183,2.661-3.96,5.086-4.649c1.071-0.305,2.153-0.362,3.189-0.216
			c0.22-1.745,1.03-3.424,2.427-4.708c0.807-0.742,1.73-1.276,2.704-1.613c-0.397-1.841-1.245-3.61-2.582-5.122
			c-4.173-4.721-11.384-5.165-16.105-0.991c-1.932,1.708-3.134,3.926-3.61,6.272c-0.267-3.446,1.016-6.971,3.805-9.437
			c4.721-4.173,11.931-3.73,16.104,0.992c2.063,2.334,2.974,5.274,2.818,8.156c2.713-0.762,5.745-0.015,7.782,2.202
			c1.706,1.856,2.324,4.32,1.903,6.623c-0.157-1.613-0.812-3.192-1.993-4.477c-2.888-3.141-7.776-3.347-10.917-0.459
			c-0.83,0.763-1.429,1.675-1.843,2.648c2.724,0.568,5.049,2.587,5.863,5.449c0.305,1.072,0.354,2.152,0.206,3.187
			c0.048-0.045,0.089-0.095,0.139-0.139c4.721-4.173,11.931-3.73,16.104,0.992c1.597,1.807,2.502,3.978,2.762,6.203
			c2.59-1.413,5.587-1.746,8.354-1.021c-7.977-12.36-18.685-25.321-32.877-38.611c-1.809-0.527-3.748-0.854-5.809-0.902
			c-4.273,0.329-11.836,2.401-15.174,7.778l-0.512,0.825l-0.798,0.553c-0.062,0.043-6.005,4.3-6.723,9.728
			c0,0,25.772,16.762,47.188,48.973C155.154,128.189,156.926,126.491,159.28,125.821z"/>
		<path id="XMLID_53_" fill="#D3202A" d="M147,249.662l8.079-33.932c-0.734-0.842-1.311-1.96-1.631-3.462l-12.658,14.938
			c-0.259,1.739-0.42,3.426-0.439,5.027C140.245,241.516,143.02,246.789,147,249.662z"/>
		<path id="XMLID_54_" fill="#6590CB" d="M317.766,31.042l0.345-2.202l-11.237-8.807c-8.008,2.569-12.587,5.583-12.587,5.583
			l10.651-7.101l-2.509-1.966c-18.863,2.764-35.503,6.401-50.108,10.533l14.051,9.679C290.769,31.627,308.607,30.933,317.766,31.042
			z"/>
		<path id="XMLID_55_" fill="#FFFFFF" d="M168.9,84.369c3.583,2.866,17.913,1.791,17.913,1.791
			c31.168-14.688,80.607-22.928,80.607-22.928l-7.523-5.732c3.439-0.529,7.122-0.423,10.4-0.078l-1.846-16.617
			C212.594,55.604,166.198,82.208,168.9,84.369z"/>
		<path id="XMLID_56_" fill="#FFFFFF" d="M160.83,75.644c0.246,0.267,0.492,0.534,0.74,0.806
			c41.286-22.416,77.231-33.888,104.802-39.689l-14.051-9.679C193.739,43.656,167.728,68.137,160.83,75.644z"/>
		<path id="XMLID_57_" fill="#6590CB" d="M307.543,53.918l-20.779-7.882c14.298-1.925,24.157,2.268,27.972,4.323l2.901-18.497
			c-16.553,1.458-33.254,4.721-49.188,8.943l1.846,16.617c5.6,0.588,10.02,1.869,10.02,1.869L307.543,53.918z"/>
		<path id="XMLID_58_" fill="#FFFFFF" d="M309.335,15.584c-2.338,0.307-4.632,0.631-6.905,0.964l2.509,1.966L309.335,15.584z"/>
		<path id="XMLID_59_" fill="#FFFFFF" d="M317.766,31.042c4.559,0.054,6.973,0.306,6.973,0.306c-2.362,0.132-4.73,0.305-7.102,0.514
			l-2.901,18.497c1.156,0.622,1.763,1.051,1.763,1.051c15.36-11.13,30.162-17.278,39.516-20.083
			c2.748-2.208,5.829-4.356,9.145-6.124c-6.406-2.796-15.995-6.226-28.118-8.415c-12.407-1.129-22.756,0.868-30.168,3.245
			l11.237,8.807L317.766,31.042z"/>
		<path id="XMLID_21_" fill="#D3202A" d="M181.962,207.513l2.51-4.543c2.466-6.322,5.886-17.781,6.008-32.899
			c-3.919-1.661-8.61-1.063-12.012,1.944c-1.172,1.036-2.072,2.263-2.708,3.59c2.915,9.711,5.036,20.148,6.063,31.286
			C181.868,207.096,181.919,207.308,181.962,207.513z"/>
		<path id="XMLID_60_" fill="#D3202A" d="M178.662,144.376c2.076,2.348,2.987,5.311,2.816,8.21c2.417-1.318,5.363-1.244,7.704,0.18
			c-0.617-3.947-1.473-8.048-2.627-12.296c-0.403-0.747-0.89-1.462-1.476-2.126c-4.174-4.721-11.384-5.165-16.105-0.991
			c-1.263,1.117-2.208,2.454-2.849,3.9C170.422,139.651,175.443,140.736,178.662,144.376z"/>
		<path id="XMLID_61_" fill="#D3202A" d="M162.557,143.385c0.876-0.775,1.839-1.389,2.851-1.848
			c0.233-2.238,1.115-4.409,2.648-6.203c0.022-0.765-0.056-1.544-0.277-2.319c-1.167-4.104-5.441-6.486-9.545-5.319
			c-1.617,0.46-2.952,1.415-3.922,2.64c2.769,4.167,5.462,8.592,8.019,13.273C162.41,143.537,162.477,143.456,162.557,143.385z"/>
		<path id="XMLID_62_" fill="#FFFFFF" d="M127.925,110.297c-6.139,9.325-22.959,35.675-27.721,51.451
			c0.844,0.621,1.698,1.238,2.514,1.869c0.882,0.628,1.729,1.309,2.532,2.008c3.209,2.607,6.182,5.275,8.937,7.941
			c6.782-5.004,23.416-16.603,41.841-24.476C148.829,135.807,139.635,122.39,127.925,110.297z"/>
		<path id="XMLID_100_" fill="#FFFFFF" d="M100.634,88.09l-15.005,15.752c-4.101,4.181-13.468,14.161-21.891,26.126
			c12.371-11.1,31.917-27.35,47.564-34.476C107.91,92.903,104.357,90.429,100.634,88.09z"/>
		<path id="XMLID_64_" fill="#FFFFFF" d="M186.476,111.309c0.401,0.763,0.794,1.532,1.182,2.306
			c32.351,13.254,64.714-0.227,64.714-0.227l-9.673-7.882c9.842,5.982,29.142,6.455,44.856,5.618l8.648-31.862
			C235.093,86.681,195.2,106.614,186.476,111.309z"/>
		<path id="XMLID_65_" fill="#6590CB" d="M298.587,95.833c7.882,6.449,25.495,10.473,25.495,10.473
			c0.786-0.014,1.563-0.016,2.332-0.011c2.526-0.063,7.082-0.326,12.256-1.296l5.705-28.526
			c-17.213-0.073-33.321,0.985-48.171,2.788l-8.648,31.862c13.458-0.717,24.287-2.393,24.287-2.393L298.587,95.833z"/>
		<path id="XMLID_93_" fill="#FFFFFF" d="M344.386,76.416c1.669,0.036,2.565,0.072,2.565,0.072c-0.863-0.009-1.719-0.01-2.577-0.014
			l-5.705,28.526c5.331-0.999,11.32-2.749,16.436-5.818c3.741-2.245,7.059-4.488,10.267-6.658
			c5.897-3.988,11.251-7.609,16.773-9.292c-5.638-8.372-17.784-23.523-35.818-31.29c-16.778-2.613-29.827,4.126-29.827,4.126
			l3.583,3.224c-0.539-0.02-1.089-0.033-1.644-0.042l26.005,16.88L344.386,76.416z"/>
		<path id="XMLID_94_" fill="#6590CB" d="M344.386,76.416l0.057-0.286l-26.005-16.88c-11.815-0.196-27.274,2.09-43.364,5.477
			l21.542,13.015l-0.056,0.207C319.826,76.124,337.93,76.276,344.386,76.416z"/>
		<path id="XMLID_96_" fill="#FFFFFF" d="M275.074,64.726c-36.447,7.674-76.123,21.002-83.963,23.942
			c-7.752,2.907-9.605,9.415-9.993,13.326c0.501,0.801,0.997,1.609,1.487,2.426c35.658-17.026,80.227-23.826,113.955-26.471
			l0.056-0.207L275.074,64.726z"/>
		<path id="XMLID_34_" fill="#D3202A" d="M183.437,160.995c1.272,1.454,1.89,3.25,1.897,5.04c1.736-0.134,3.488,0.127,5.119,0.777
			c-0.086-3.68-0.374-7.557-0.916-11.612c-2.909-2.058-6.956-1.887-9.685,0.622c-0.801,0.737-1.385,1.612-1.799,2.547
			C180.055,158.482,182.012,159.366,183.437,160.995z"/>
		<path id="XMLID_97_" fill="#FFFFFF" d="M153.159,209.035c0.111-9.629,10.957-25.788,10.957-25.788
			c6.201,13.934,7.181,23.938,5.245,29.479l10.051,11.182c-0.535-12.825-4.698-29.831-13.983-50.695c0,0-18.859,28.101-23.867,49.91
			l11.617-13.485C153.176,209.432,153.157,209.249,153.159,209.035z"/>
		<path id="XMLID_98_" fill="#D3202A" d="M172.534,160.264c1.439-1.258,3.212-1.882,4.984-1.904
			c0.224-1.736,1.034-3.405,2.424-4.683c0.358-0.329,0.74-0.612,1.137-0.861c-0.382-1.896-1.239-3.721-2.612-5.275
			c-3.863-4.37-10.324-5.067-15.008-1.838c2.726,5.157,5.278,10.613,7.573,16.366C171.431,161.411,171.924,160.798,172.534,160.264z
			"/>
		<path id="XMLID_99_" fill="#D3202A" d="M178.663,168.849c1.808-1.598,3.98-2.513,6.208-2.776c-0.302-1.051-0.81-2.058-1.578-2.936
			c-2.809-3.212-7.69-3.539-10.902-0.73c-0.32,0.28-0.608,0.581-0.87,0.899c1.365,3.503,2.63,7.117,3.785,10.835
			C175.89,172.163,177.003,170.317,178.663,168.849z"/>
		<path id="XMLID_80_" fill="#6590CB" d="M164.108,165.703c-0.429-0.987-0.869-1.977-1.319-2.972l-6.15-9.224
			c-17.157,7.496-32.595,18.162-39.371,23.129c11.941,12.276,19.108,23.994,21.931,29.059
			C147.053,190.488,160.24,170.87,164.108,165.703z"/>
		<path id="XMLID_89_" fill="#FFFFFF" d="M188.603,214.057c0,0,0,0,3.583,9.673c1.947,5.257,23.571,21.832,42.911,35.873
			c8.317,3.891,27.407,13.023,34.094,17.92c5.513,4.037,12.2,10.188,18.598,16.033l19.632-10.284
			C268.611,253.533,188.603,214.057,188.603,214.057z"/>
		<path id="XMLID_102_" fill="#FFFFFF" d="M313.252,244.794c-2.213-1.161-3.731-2.1-4.408-2.535
			c-17.855-9.209-36.41-9.215-36.41-9.215l9.315-2.508c-49.439-29.735-90.638-20.062-90.638-20.062
			c50.209,14.382,94.903,51.323,116.948,71.917l8.771-35.084C315.688,246.437,314.497,245.596,313.252,244.794z"/>
		<path id="XMLID_103_" fill="#FFFFFF" d="M338.532,305.053l-20.778,10.861c4.366,2.398,10.055,4.744,16.057,5.127
			c8.058,0.515,14.126,2.372,18.196,4.113c0.922-7.655,0.728-22.491-9.378-40.586L338.532,305.053z"/>
		<path id="XMLID_104_" fill="#6590CB" d="M342.629,284.568c-0.855-1.531-1.773-3.082-2.775-4.658l-0.341-0.536l-0.186-0.606
			c-0.064-0.208-6.038-18.934-22.498-31.462l-8.771,35.084c5.091,4.756,8.975,8.64,11.439,11.173
			c1.127,1.111,2.168,2.197,3.092,3.249c0,0-1.076-1.177-3.092-3.249c-3.277-3.229-7.376-6.689-12.077-10.292l-19.632,10.284
			c8.203,7.494,15.929,14.486,20.09,15.873l0.892,0.297l0.708,0.62c0.057,0.05,3.311,2.842,8.276,5.569l20.778-10.861
			L342.629,284.568z"/>
		<path id="XMLID_87_" fill="#FFFFFF" d="M198.276,184.68c24.719,18.987,85.981,40.124,85.981,40.124l-8.598-17.554
			c5.462,7.676,13.596,14.311,21.276,19.467l20.268-15.98C252.433,185.201,198.276,184.68,198.276,184.68z"/>
		<path id="XMLID_101_" fill="#6590CB" d="M357.938,207.389c-14.69-7.3-29.616-8.021-29.616-8.021l14.688-1.791
			c-7.503-8.08-17.068-14.09-24.32-17.927l1.571,28.675l-0.367,0.29c20.838,9.95,32.789,18.339,32.789,18.339
			c-12.001-6.299-23.909-11.655-35.481-16.217l-20.268,15.98c5.808,3.899,11.357,6.954,15.289,8.96l1.004-1.693
			c1.391,0.722,2.722,1.488,4.014,2.282l-5.4-16.836c6.619,11.835,18.504,19.387,27.695,23.755l19.415-10.678L357.938,207.389z"/>
		<path id="XMLID_105_" fill="#FFFFFF" d="M318.69,179.65c-6.254-3.308-10.788-5.001-10.788-5.001
			c-23.286,1.433-49.081-6.807-49.081-6.807c-10.389,2.866-37.258-0.358-37.258-0.358l-22.57,9.314
			c51.005,3.048,93.589,18.774,120.901,31.816l0.367-0.29L318.69,179.65z"/>
		<path id="XMLID_106_" fill="#FFFFFF" d="M362.392,209.823c-1.472-0.884-2.962-1.692-4.454-2.434l1.015,25.118l-19.415,10.678
			c0.199,0.095,0.404,0.197,0.6,0.288c2.842,0.27,5.784,0.307,8.77-0.016c13.304-1.432,24.066,0.313,30.379,1.87
			C378.981,237.825,376.311,223.667,362.392,209.823z"/>
		<path id="XMLID_84_" fill="#FFFFFF" d="M162.451,264.928c-2.866,4.299-5.374,11.464-5.374,11.464
			c3.224,30.81-8.433,66.725-8.433,66.725c-0.05,0.117-4.137,9.793-7.072,20.834c0.167-0.036,0.337-0.075,0.51-0.113l12.776-2.841
			l-3.447,4.388l11.118,9.059C175.511,324.135,162.451,264.928,162.451,264.928z"/>
		<path id="XMLID_88_" fill="#6590CB" d="M177.702,369.878l-12.458,5.731c-7.922,21.775-17.481,33.159-17.481,33.159
			c6.864-10.243,11.59-22.018,14.766-34.323l-11.118-9.059l-4.638,5.904c-0.217,0.285-5.773,7.714-5.238,20.287
			c0.284,6.689,0.121,12.76-0.477,18.214l9.393,8.112l26.534-9.444c0.874-1.507,1.646-3.085,2.29-4.753
			C181.736,390.779,178.928,375.495,177.702,369.878z"/>
		<path id="XMLID_107_" fill="#FFFFFF" d="M177.184,367.658c0.327,0.675,0.641,1.35,0.948,2.022l9.327-4.29
			c-0.311-13.646-5.035-24.601-5.035-24.601c5.119,5.707,8.071,11.728,9.566,15.444c0.371-1.195,0.828-2.761,1.319-4.656
			c-0.489-66.021-22.977-85.215-22.977-85.215c10.447,48.284,3.683,85.137-5.089,109.247l12.458-5.731
			C177.394,368.468,177.184,367.658,177.184,367.658z"/>
		<path id="XMLID_108_" fill="#FFFFFF" d="M184.036,385.525c2.746-6.737,3.569-13.732,3.423-20.136l-9.327,4.29
			C181.853,377.841,184.036,385.525,184.036,385.525z"/>
		<path id="XMLID_110_" fill="#FFFFFF" d="M141.057,409.79c-0.811,7.39-2.425,13.642-4.844,18.71
			c4.73-0.287,10.952-1.059,17.264-2.978c11.028-3.352,18.876-9.079,23.507-17.063l-26.534,9.444L141.057,409.79z"/>
		<path id="XMLID_113_" fill="#6590CB" d="M96.526,159.145c5.63-17.075,22.649-43.452,28.298-51.962
			c-3.063-2.988-6.296-5.877-9.693-8.656c-19.476,7.939-47.641,33.622-57.149,42.614l7.197,2.652
			C77.131,147.56,87.539,153.007,96.526,159.145z"/>
		<path id="XMLID_114_" fill="#54221E" d="M128.238,342.132c0,0-5.732,18.629-21.854,27.764c0,0,27.048-6.628,25.615-30.631
			L128.238,342.132z"/>
		<path id="XMLID_81_" fill="#FFFFFF" d="M291.149,120.643c-6.995,2.307-10.833,5.283-10.833,5.283l4.299-6.807
			c0,0-18.271-5.732-54.454,0.716c-28.862,5.144-32.647,16.206-32.998,20.476c0.116,0.559,0.233,1.117,0.339,1.679
			c38.127-7.379,77.303-7.462,107.66-5.571l0.052-0.105L291.149,120.643z"/>
		<path id="XMLID_86_" fill="#FFFFFF" d="M348.39,140.846c7.53,1.095,11.816,1.918,11.816,1.918
			c-3.861-0.643-7.853-1.186-11.945-1.639l-10.767,23.492c6.413-0.819,14.675-2.371,22.019-5.309
			c9.917-3.966,20.079-5.097,26.723-5.358c-2.185-4.392-5.809-10.569-11.231-16.646c-9.839-11.027-21.897-17.861-35.954-20.457
			c-2.397,0.524-4.765,1.265-7.025,2.115l16.717,21.116L348.39,140.846z"/>
		<path id="XMLID_109_" fill="#FFFFFF" d="M301.453,166.051l-8.077-6.057l-3.024,6.048
			C296.973,166.249,301.453,166.051,301.453,166.051z"/>
		<path id="XMLID_112_" fill="#FFFFFF" d="M288.556,156.378l5.436,2.384l9.752-19.504c-51.606,0.6-102.243,8.88-102.243,8.88
			c18.271,16.121,44.782,15.047,44.782,15.047l-7.165-12.181c9.722,11.965,36.09,14.563,51.235,15.038l3.024-6.048L288.556,156.378z
			"/>
		<path id="XMLID_115_" fill="#6590CB" d="M308.976,165.334l1.517,0.449l16.087-0.263c0.089-0.002,4.608-0.097,10.915-0.902
			l10.767-23.492c-14.081-1.559-29.341-2.045-44.518-1.868l-9.752,19.504L308.976,165.334z"/>
		<path id="XMLID_116_" fill="#6590CB" d="M348.742,140.077l-16.717-21.116c-9.211,3.463-16.601,8.756-16.601,8.756l7.523-7.882
			c-13.591-3.306-24.441-1.62-31.799,0.807l14.065,15.673l-0.052,0.105c18.375,1.145,33.509,3.012,43.227,4.426L348.742,140.077z"/>
		<path id="XMLID_63_" fill="#FFFFFF" d="M267.432,371.268c0.069,0.034,0.135,0.072,0.204,0.106
			c10.625,5.222,18.09,10.765,22.68,14.721c2.287-8.514,4.811-24.62-0.948-43.759l-3.499,23.441L267.432,371.268z"/>
		<path id="XMLID_120_" fill="#6590CB" d="M283.082,326.929l-0.11-0.317c-0.048-0.138-1.196-12.237-14.701-31.847
			c-1.141-1.071-2.288-2.121-3.441-3.151l-5.155,40.301c7.334,11.34,12.881,20.714,15.997,26.127
			c0.904,1.534,1.768,3.059,2.59,4.574c-0.401-0.724-1.275-2.288-2.59-4.574c-4.781-8.112-10.661-16.47-17.104-24.74l-21.759,6.85
			c1.163,1.003,2.24,1.792,3.197,2.293l1.395,0.731l0.669,1.426c0.084,0.178,8.864,18.442,25.361,26.666l18.437-5.492l3.499-23.441
			c-1.464-4.866-3.455-9.925-6.132-15.109L283.082,326.929z M278.442,362.94c0.027,0.05,0.056,0.1,0.083,0.15
			C278.525,363.09,278.492,363.03,278.442,362.94z"/>
		<path id="XMLID_136_" fill="#FFFFFF" d="M185.379,257.405c0.393,6.679,4.773,17.685,6.896,21.674l-0.179-7.613l11.749,23.509
			c8.345,14.183,23.594,37.092,32.963,45.176l21.759-6.85C228.239,294.374,185.379,257.405,185.379,257.405z"/>
		<path id="XMLID_137_" fill="#FFFFFF" d="M188.962,247.016c27.85,22.786,53.955,58.985,70.714,84.899l5.155-40.301
			C229.379,259.917,188.962,247.016,188.962,247.016z"/>
		<path id="XMLID_124_" fill="#54221E" d="M84.262,387.093l-0.627,1.702c18.092,0.896,21.316-15.047,21.316-15.047l-4.389,0.358
			C99.22,387.719,84.262,387.093,84.262,387.093z"/>
		<path id="XMLID_125_" fill="#54221E" d="M128.417,323.592c0.64-8.745-4.812-23.914-7.089-29.801
			c-0.574-0.284-1.134-0.578-1.734-0.841c-0.035-0.032-0.07-0.062-0.104-0.094c-0.022-0.021-0.047-0.04-0.069-0.061
			c-10.299,16.607-4.975,35.634-4.975,35.634L128.417,323.592z"/>
		<path id="XMLID_126_" fill="#54221E" d="M67.872,388.705c-6.001,4.21-4.836,11.106-11.733,13.614c0,0,6.449-0.896,10.748-4.299
			c0,0-3.224,3.941-8.329,5.284c0,0,18.808-2.06,20.241-17.644C78.799,385.66,73.873,384.495,67.872,388.705z"/>
		<path id="XMLID_129_" fill="#F9A261" d="M111.49,213.698c1.612,14.241-4.03,31.705-4.03,31.705
			c1.075-18.54-4.299-32.78-4.299-32.78c12.897-16.121,11.554-24.451,11.554-24.451c-5.439-7.443-13.93-14.304-22.617-20.066
			c-6.722,2.82-20.048,7.195-22.267,1.977l-4.492-10.561l8.494,7.134c0,0,4.46-0.761,10.941-3.143
			c-9.544-5.674-18.324-9.792-22.427-11.623c-0.862,4.017-6.052,8.955-3.05,15.46c0,0-3.923,6.114-3.963,6.166
			c-5.773,7.512-11.898,30.959-2.737,40.12c1.138,1.138,5.953,0.814,9.334-0.225l5.893-1.812v0.004
			c0.014,0.013,2.63,2.533,6.749,1.367c2.073-0.587,1.363-4.052-4.558-9.427c0,0,6.778,2.104,14.024,11.687
			c4.229,5.593,16.128,14.492,16.128,14.492s-0.468,15.66-8.414,22.205c0,0,4.441-10.986,2.337-17.53
			c-2.104-6.545-13.282-10.474-17.004-13.498c-1.802-1.464-6.128-0.108-8.997,1.051l0.16,6.268
			c4.171-0.632,15.336-1.405,22.54,6.734c0,0-11.279-1.597-25.861,0.702l-0.752,0.752l3.244,5.603
			c2.426-0.186,9.714-0.532,13.67,1.591c0,0-7.99,2.155-12.388,10.635c-1.319,2.544-1.746,12.355,0.814,15.835
			c1.34,1.821,3.359,3.652,6.217,3.713c2.012,0.043,5.755-0.213,10.233-0.838c11.554-1.612,27.675-15.45,27.675-15.45
			C121.7,233.581,111.49,213.698,111.49,213.698z M101.571,181.498c0,0-8.064-0.935-9.7-0.467
			c-1.636,0.467-5.726,2.571-11.336,2.922c0,0-2.571-3.155-3.039-8.181c0,0,17.063,3.506,25.36,3.273l-5.96,0.935L101.571,181.498z"
			/>
		<path id="XMLID_130_" fill="#54221E" d="M126.984,329.772c0,0-26.69,3.941-26.152,32.959l0.582,6.135
			C101.414,368.867,127.477,354.089,126.984,329.772z"/>
		<path id="XMLID_131_" fill="#54221E" d="M96.712,376.345c1.791-4.478-0.627-9.762-0.627-9.762
			c-11.016,6.18-13.972,17.733-13.972,17.733C90.263,385.928,94.921,380.823,96.712,376.345z"/>
		<path id="XMLID_166_" fill="#270E0B" d="M77.496,175.772c0.468,5.025,3.039,8.181,3.039,8.181c5.61-0.351,9.7-2.454,11.336-2.922
			c1.636-0.467,9.7,0.467,9.7,0.467l-4.675-1.52l5.96-0.935C94.558,179.278,77.496,175.772,77.496,175.772z"/>
		<path id="XMLID_111_" fill="#270E0B" d="M278.442,362.94c0.05,0.09,0.083,0.15,0.083,0.15
			C278.498,363.04,278.469,362.99,278.442,362.94z"/>
		<path id="XMLID_118_" fill="#270E0B" d="M275.673,358.042c1.315,2.285,2.189,3.85,2.59,4.574
			C277.44,361.101,276.577,359.576,275.673,358.042z"/>
		<path id="XMLID_119_" fill="#270E0B" d="M319.498,293.564c2.016,2.072,3.092,3.249,3.092,3.249
			C321.666,295.76,320.625,294.674,319.498,293.564z"/>
	</g>
</g>
<g id="outline">
	<path id="XMLID_860_" fill="#270E0B" d="M397.793,157.21c-0.174-0.534-4.402-13.218-15.549-25.834
		c-6.509-7.366-16.233-15.58-29.838-20.538c2.565-0.996,5.101-2.195,7.509-3.64c3.958-2.375,7.537-4.794,10.694-6.93
		c7.854-5.311,13.524-9.14,18.862-8.632l8.542,0.827l-3.938-7.626c-0.587-1.138-13.789-26.245-39.564-39.403
		c5.369-5.672,14.336-13.378,23.134-14.931l11.724-2.069l-10-6.461c-0.781-0.505-17.703-11.257-45.978-15.259l-34.087,4.212
		c0,0-66.635,8.598-119.298,40.483c-13.644,8.261-22.832,12.523-28.967,14.314c-2.895-2.735-5.306-4.845-6.99-6.27l-8.48-5.53
		c-7.528-1.365-20.457-0.519-27.89,10.578c-2.318,1.814-8.743,7.486-9.887,15.337L83.447,92.9l-2.174,2.084
		c-0.94,0.901-23.149,22.324-35.289,46.129l-2.392,4.69l9.723,3.582c-1.105,4.829-6.858,10.192-3.891,18.458
		c-5.648,7.966-18.121,37.72-3.438,52.404c3.434,3.433,8.676,3.753,12.796,3.309l0.122,4.899l-6.42,6.42l7.59,13.111
		c-1.662,5.32-3.007,17.477,1.89,27.599c6.805,14.064,36.248,5.1,36.248,5.1c3.975,1.454,11.004,4.554,16.92,8.702
		c-5.794,10.206-10.152,24.647-6.231,43.031c0,0-14.424,12.834-13.595,29.934c0,0-14.586,7.653-16.887,21.015
		c0,0-15.085-2.02-18.689,9.174c-3.604,11.194-12.677,11.812-12.677,11.812s25.53,10.565,35.355-11.889
		c0,0,14.373,7.712,26.907-16.619c0,0,16.943-4.282,25.218-24.315l1.61-1.135c-0.654,2.438-3.096,8.928-2.979,8.857
		c-0.918,3.254-1.773,6.689-2.446,10.123l-1.457,7.469l5.226-1.481c-1.447,4.308-2.577,9.919-2.293,16.612
		c0.783,18.387-2.017,31.548-8.096,38.061l-6.632,7.105l9.691,0.745c0.184,0.014,1.712,0.125,4.184,0.125
		c5.233,0,14.695-0.498,24.591-3.464c19.296-5.783,31.164-18.171,34.447-35.901c4.621-3.402,13.977-13.483,9.895-37.625
		c1.636-4.741,6.956-21.95,6.414-43.931c8.191,12.347,19.296,27.498,27.593,32.825c2.555,4.875,12.229,21.493,29.232,29.85
		c17.145,8.427,25.221,17.748,25.291,17.83l4.722,5.596l3.089-6.639c0.636-1.367,15.311-33.851-4.924-73.328
		c-0.574-1.598-3.183-8.601-8.823-20.228c7.62,6.554,15.719,12.789,21.152,14.97c2.994,2.436,15.018,11.5,29.197,12.406
		c12.793,0.816,19.202,5.539,19.232,5.56l5.199,4.068l2.112-6.254c0.358-1.061,8.499-26.222-11.696-58.35
		c-0.896-2.659-4.646-12.783-12.908-23.13c4.626,0.759,9.612,1.038,14.755,0.488c18.725-2.021,31.925,3.073,32.044,3.12l5.371,2.148
		l0.973-5.702c0.196-1.149,4.486-28.406-23.024-52.602l-1.553-1.224l3.247-1.624l-4.114-4.563
		c-0.529-0.586-9.778-10.773-21.073-18.833c6.453-0.982,14.123-2.65,21.207-5.484c14.331-5.732,29.862-4.679,30.012-4.665
		l6.966,0.525L397.793,157.21z M382.145,83.232c-5.521,1.683-10.876,5.304-16.773,9.292c-3.208,2.169-6.525,4.413-10.267,6.658
		c-10.081,6.048-23.563,6.986-28.692,7.114c-0.769-0.005-1.546-0.003-2.332,0.011c0,0-17.613-4.025-25.495-10.473l13.255,12.897
		c0,0-50.872,7.882-69.143-3.224l9.673,7.882c0,0-32.363,13.481-64.714,0.227c-0.388-0.774-0.781-1.544-1.182-2.306
		c10.949-5.892,71-35.79,160.475-34.821c0,0-97.733-3.875-164.346,27.933c-0.49-0.817-0.986-1.625-1.487-2.426
		c0.388-3.911,2.241-10.419,9.993-13.326c11.464-4.299,90.996-30.81,128.971-29.377l-3.583-3.224c0,0,13.049-6.739,29.827-4.126
		C364.36,59.708,376.507,74.86,382.145,83.232z M154.313,130.337c0.97-1.225,2.304-2.18,3.922-2.64
		c4.105-1.167,8.378,1.214,9.545,5.319c0.221,0.776,0.299,1.555,0.277,2.319c-1.533,1.794-2.415,3.964-2.648,6.203
		c-1.013,0.459-1.975,1.073-2.851,1.848c-0.081,0.071-0.147,0.152-0.225,0.225C159.775,138.929,157.082,134.503,154.313,130.337z
		 M156.029,149.09c-18.425,7.873-35.06,19.473-41.841,24.476c-2.755-2.666-5.728-5.334-8.937-7.941
		c-0.803-0.699-1.65-1.38-2.532-2.008c-0.816-0.631-1.67-1.248-2.514-1.869c4.762-15.776,21.582-42.126,27.721-51.451
		C139.635,122.39,148.829,135.807,156.029,149.09z M183.437,160.995c-1.424-1.629-3.382-2.512-5.384-2.625
		c0.414-0.935,0.998-1.811,1.799-2.547c2.73-2.509,6.776-2.68,9.685-0.622c0.541,4.055,0.83,7.932,0.916,11.612
		c-1.631-0.65-3.383-0.911-5.119-0.777C185.327,164.244,184.708,162.449,183.437,160.995z M184.871,166.073
		c-2.227,0.263-4.4,1.179-6.208,2.776c-1.66,1.468-2.773,3.314-3.357,5.291c-1.155-3.718-2.42-7.332-3.785-10.835
		c0.262-0.317,0.55-0.619,0.87-0.899c3.212-2.809,8.094-2.482,10.902,0.73C184.061,164.015,184.569,165.022,184.871,166.073z
		 M181.478,152.587c0.17-2.899-0.74-5.862-2.816-8.21c-3.219-3.641-8.24-4.726-12.536-3.123c0.641-1.446,1.586-2.783,2.849-3.9
		c4.721-4.173,11.931-3.73,16.105,0.991c0.586,0.664,1.073,1.379,1.476,2.126c1.154,4.248,2.01,8.349,2.627,12.296
		C186.842,151.342,183.895,151.268,181.478,152.587z M178.467,147.542c1.373,1.554,2.23,3.379,2.612,5.275
		c-0.397,0.249-0.78,0.532-1.137,0.861c-1.39,1.278-2.199,2.947-2.424,4.683c-1.772,0.023-3.545,0.647-4.984,1.904
		c-0.61,0.534-1.103,1.147-1.502,1.805c-2.296-5.753-4.847-11.209-7.573-16.366C168.143,142.475,174.604,143.172,178.467,147.542z
		 M179.413,223.908l-10.051-11.182c1.936-5.541,0.955-15.545-5.245-29.479c0,0-10.846,16.159-10.957,25.788
		c-0.002,0.214,0.017,0.398,0.021,0.602l-11.617,13.485c5.007-21.809,23.867-49.91,23.867-49.91
		C174.715,194.077,178.878,211.083,179.413,223.908z M153.449,212.269c0.32,1.502,0.897,2.619,1.631,3.462L147,249.662
		c-3.98-2.873-6.755-8.146-6.648-17.429c0.019-1.601,0.18-3.288,0.439-5.027L153.449,212.269z M156.881,217.138
		c1.075,0.546,2.283,0.786,3.496,0.841L160.13,252.7c-3.687,0.203-7.589-0.135-10.947-1.74L156.881,217.138z M155.823,207.429
		c0.088-7.635,7.703-18.719,7.703-18.719c5.822,15.047,5.486,24.492,0.267,25.429C160.37,214.753,155.736,215.064,155.823,207.429z
		 M162.438,217.928c0.666-0.061,1.309-0.154,1.9-0.26c0.345-0.062,0.676-0.161,0.998-0.282l8.963,29.319
		c-2.228,2.92-5.078,4.698-8.362,5.288c-1.148,0.206-2.38,0.393-3.657,0.531L162.438,217.928z M166.998,216.403
		c0.505-0.427,0.961-0.952,1.361-1.576l11.12,12.37c-0.03,3.883-0.433,7.314-1.138,10.314l-1.134,3.77
		c-0.414,1.1-0.878,2.121-1.393,3.057L166.998,216.403z M175.76,175.604c0.636-1.327,1.536-2.553,2.708-3.59
		c3.402-3.007,8.092-3.604,12.012-1.944c-0.122,15.118-3.542,26.577-6.008,32.899l-2.51,4.543c-0.043-0.204-0.094-0.417-0.138-0.622
		C180.797,195.752,178.675,185.315,175.76,175.604z M309.335,15.584l-15.047,10.031c0,0,16.943-11.178,42.755-8.828
		c12.123,2.19,21.712,5.62,28.118,8.415c-3.316,1.768-6.398,3.916-9.145,6.124c-9.354,2.805-24.157,8.953-39.516,20.083
		c0,0-11.106-7.882-29.735-5.374l20.779,7.882l-27.227,5.374c0,0-11.106-3.224-20.42-1.791l7.523,5.732
		c0,0-49.439,8.24-80.607,22.928c0,0-14.33,1.075-17.913-1.791c-3.582-2.866,79.174-48.722,155.84-53.021
		c0,0-67.167-7.022-163.169,45.102c-0.248-0.272-0.494-0.539-0.74-0.806C169.654,66.04,209.761,28.653,309.335,15.584z
		 M113.814,71.583l0.798-0.553l0.512-0.825c3.338-5.377,10.9-7.449,15.174-7.778c2.061,0.048,4,0.375,5.809,0.902
		c14.192,13.29,24.899,26.251,32.877,38.611c-2.767-0.724-5.764-0.392-8.354,1.021c-0.26-2.225-1.165-4.396-2.762-6.203
		c-4.174-4.721-11.384-5.165-16.104-0.992c-0.05,0.044-0.09,0.094-0.139,0.139c0.148-1.036,0.099-2.115-0.206-3.187
		c-0.814-2.862-3.139-4.882-5.863-5.449c0.415-0.973,1.013-1.885,1.843-2.648c3.141-2.888,8.029-2.683,10.917,0.459
		c1.182,1.285,1.837,2.864,1.993,4.477c0.421-2.303-0.197-4.767-1.903-6.623c-2.038-2.216-5.069-2.964-7.782-2.202
		c0.156-2.882-0.755-5.822-2.818-8.156c-4.173-4.721-11.384-5.165-16.104-0.992c-2.789,2.466-4.073,5.991-3.805,9.437
		c0.476-2.346,1.679-4.564,3.61-6.272c4.721-4.173,11.931-3.73,16.105,0.991c1.337,1.512,2.185,3.281,2.582,5.122
		c-0.974,0.336-1.896,0.871-2.704,1.613c-1.396,1.284-2.207,2.963-2.427,4.708c-1.036-0.146-2.117-0.088-3.189,0.216
		c-2.425,0.69-4.24,2.466-5.086,4.649c0.977-1.293,2.361-2.296,4.04-2.774c4.105-1.167,8.378,1.214,9.545,5.319
		c0.221,0.776,0.299,1.555,0.277,2.32c-2.008,2.35-2.921,5.346-2.693,8.291c0.476-2.346,1.679-4.564,3.611-6.272
		c4.721-4.173,11.931-3.73,16.105,0.991c0.95,1.074,1.648,2.28,2.119,3.547c-0.436,0.289-0.862,0.599-1.265,0.956
		c-2.211,1.955-3.459,4.577-3.756,7.296c-1.072-0.208-2.186-0.183-3.283,0.129c-2.425,0.689-4.203,2.597-4.992,4.98
		c0.948-1.398,2.314-2.464,3.993-2.941c4.105-1.167,8.484,1.586,9.781,6.148c0.531,1.867,0.455,3.744-0.091,5.394
		c1.368-2.019,1.856-4.737,1.09-7.433c-0.889-3.129-3.229-5.406-5.934-6.152c0.638-1.582,1.632-3.048,2.997-4.256
		c0.656-0.58,1.363-1.061,2.101-1.464c0.018,0.155,0.042,0.308,0.054,0.463c0.036-0.175,0.05-0.354,0.077-0.53
		c3.517-1.861,7.757-1.744,11.147,0.269c5.973,9.937,10.214,19.455,13.13,28.408c-4.224-4.29-11.107-4.583-15.671-0.548
		c-0.05,0.044-0.09,0.094-0.139,0.139c0.148-1.036,0.099-2.115-0.205-3.187c-0.814-2.862-3.139-4.882-5.863-5.449
		c0.415-0.973,1.013-1.885,1.843-2.648c3.141-2.888,8.029-2.683,10.917,0.459c1.182,1.285,1.837,2.864,1.993,4.477
		c0.421-2.303-0.197-4.767-1.903-6.623c-2.888-3.141-7.776-3.347-10.917-0.458c-1.396,1.284-2.207,2.963-2.427,4.708
		c-1.036-0.146-2.117-0.088-3.189,0.216c-2.354,0.669-4.126,2.368-5.001,4.463c-21.416-32.211-47.188-48.973-47.188-48.973
		C107.809,75.883,113.752,71.626,113.814,71.583z M85.629,103.842l15.005-15.752c3.723,2.338,7.276,4.813,10.669,7.403
		c-15.647,7.126-35.193,23.376-47.564,34.476C72.161,118.004,81.529,108.024,85.629,103.842z M115.131,98.526
		c3.397,2.779,6.63,5.669,9.693,8.656c-5.649,8.51-22.668,34.887-28.298,51.962c-8.986-6.137-19.395-11.584-31.347-15.352
		l-7.197-2.652C67.49,132.148,95.655,106.465,115.131,98.526z M113.639,257.495c0,0-16.121,13.838-27.675,15.45
		c-4.479,0.625-8.221,0.881-10.233,0.838c-2.858-0.061-4.877-1.892-6.217-3.713c-2.56-3.481-2.134-13.292-0.814-15.835
		c4.398-8.48,12.388-10.635,12.388-10.635c-3.956-2.123-11.244-1.776-13.67-1.591l-3.244-5.603l0.752-0.752
		c14.582-2.299,25.861-0.702,25.861-0.702c-7.203-8.139-18.369-7.366-22.54-6.734l-0.16-6.268c2.869-1.158,7.195-2.515,8.997-1.051
		c3.722,3.024,14.9,6.954,17.004,13.498c2.104,6.544-2.337,17.53-2.337,17.53c7.947-6.545,8.414-22.205,8.414-22.205
		s-11.899-8.898-16.128-14.492c-7.246-9.583-14.024-11.687-14.024-11.687c5.921,5.376,6.631,8.84,4.558,9.427
		c-4.118,1.166-6.735-1.354-6.749-1.367v-0.004l-5.893,1.812c-3.382,1.038-8.197,1.363-9.334,0.225
		c-9.161-9.161-3.036-32.608,2.737-40.12c0.04-0.052,3.963-6.166,3.963-6.166c-3.002-6.505,2.188-11.443,3.05-15.46
		c4.103,1.831,12.883,5.949,22.427,11.623c-6.482,2.383-10.941,3.143-10.941,3.143l-8.494-7.134l4.492,10.561
		c2.219,5.218,15.545,0.844,22.267-1.977c8.687,5.761,17.177,12.622,22.617,20.066c0,0,1.343,8.329-11.554,24.451
		c0,0,5.374,14.24,4.299,32.78c0,0,5.643-17.465,4.03-31.705C111.49,213.698,121.7,233.581,113.639,257.495z M119.421,292.794
		c0.023,0.021,0.047,0.04,0.069,0.061c0.035,0.032,0.069,0.062,0.104,0.094c0.6,0.263,1.16,0.558,1.734,0.841
		c2.277,5.887,7.729,21.056,7.089,29.801l-13.972,4.836C114.445,328.429,109.122,309.402,119.421,292.794z M126.984,329.772
		c0.493,24.316-25.57,39.094-25.57,39.094l-0.582-6.135C100.294,333.713,126.984,329.772,126.984,329.772z M58.558,403.303
		c5.105-1.343,8.329-5.284,8.329-5.284c-4.299,3.403-10.748,4.299-10.748,4.299c6.896-2.508,5.732-9.404,11.733-13.614
		c6.001-4.209,10.927-3.045,10.927-3.045C77.366,401.244,58.558,403.303,58.558,403.303z M82.113,384.316
		c0,0,2.956-11.554,13.972-17.733c0,0,2.418,5.284,0.627,9.762C94.921,380.823,90.263,385.928,82.113,384.316z M83.636,388.794
		l0.627-1.702c0,0,14.957,0.627,16.3-12.987l4.389-0.358C104.952,373.748,101.727,389.69,83.636,388.794z M106.384,369.896
		c16.121-9.135,21.854-27.764,21.854-27.764l3.762-2.866C133.433,363.269,106.384,369.896,106.384,369.896z M117.268,176.635
		c6.776-4.967,22.214-15.633,39.371-23.129l6.15,9.224c0.45,0.995,0.89,1.986,1.319,2.972c-3.867,5.167-17.054,24.785-24.908,39.992
		C136.376,200.63,129.209,188.911,117.268,176.635z M191.99,356.232c-1.495-3.716-4.447-9.737-9.566-15.444
		c0,0,10.21,23.645,1.612,44.737c0,0-2.552-9.001-6.852-17.868c0,0,5.17,19.877,2.089,36.048
		c-4.054,10.504-12.688,17.831-25.797,21.816c-6.311,1.919-12.533,2.692-17.264,2.978c4.204-8.808,5.991-21.174,5.321-36.924
		c-0.535-12.573,5.021-20.002,5.238-20.287l8.085-10.292l-12.776,2.841c-0.173,0.038-0.343,0.077-0.51,0.113
		c2.935-11.04,7.023-20.717,7.072-20.834c0,0,11.657-35.915,8.433-66.725c0,0,2.508-7.165,5.374-11.464
		c0,0,20.241,91.713-14.688,143.839c0,0,42.453-50.514,22.57-142.405c0,0,22.488,19.194,22.977,85.215
		C192.818,353.471,192.361,355.037,191.99,356.232z M282.972,326.612l0.11,0.317l0.154,0.299
		c13.205,25.572,9.948,48.189,7.08,58.868c-4.589-3.956-12.055-9.498-22.68-14.721c-16.631-8.174-25.481-26.593-25.566-26.772
		l-0.669-1.426l-1.395-0.731c-8.668-4.54-26.78-31.526-36.161-47.469l-11.749-23.509l0.179,7.613
		c-2.124-3.99-6.504-14.996-6.896-21.674c0,0,63.008,54.344,90.293,100.637c-10.236-17.783-46.674-78.268-86.711-111.026
		c0,0,43.089,13.754,79.31,47.749C281.776,314.375,282.924,326.474,282.972,326.612z M339.328,278.768l0.186,0.606l0.341,0.536
		c12.85,20.193,13.153,36.941,12.153,45.243c-4.07-1.741-10.138-3.598-18.196-4.113c-12.827-0.818-24.225-10.602-24.333-10.695
		l-0.708-0.62l-0.892-0.297c-7.406-2.469-26.106-22.692-38.687-31.906c-6.688-4.897-25.777-14.029-34.094-17.92
		c-19.34-14.041-40.964-30.616-42.911-35.873c-3.583-9.673-3.583-9.673-3.583-9.673s100.568,49.62,130.894,79.507
		c-13.134-13.5-66.582-65.387-128.386-83.09c0,0,41.199-9.673,90.638,20.062l-9.315,2.508c0,0,18.555,0.006,36.41,9.215
		c0.677,0.435,2.195,1.374,4.408,2.535C332.435,257.145,339.259,278.546,339.328,278.768z M343.01,197.577l-14.688,1.791
		c0,0,18.113,0.874,34.07,10.455c13.919,13.844,16.589,28.003,16.894,35.505c-6.314-1.557-17.075-3.301-30.379-1.87
		c-2.986,0.323-5.928,0.286-8.77,0.016c-9.266-4.322-21.532-11.952-28.295-24.043l5.4,16.836c-1.292-0.794-2.623-1.56-4.014-2.282
		l-1.004,1.693c-9.131-4.659-26.972-14.946-36.565-28.428l8.598,17.554c0,0-61.261-21.137-85.981-40.124
		c0,0,75.233,0.716,154.407,42.274c0,0-63.769-44.782-153.69-50.155l22.57-9.314c0,0,26.869,3.224,37.258,0.358
		c0,0,25.794,8.24,49.081,6.807C307.902,174.649,329.039,182.53,343.01,197.577z M359.514,159.308
		c-14.566,5.827-32.754,6.208-32.934,6.211l-16.087,0.263l-1.517-0.449l-20.42-8.956l12.897,9.673c0,0-48.364,2.15-62.336-15.047
		l7.165,12.181c0,0-26.511,1.075-44.782-15.047c0,0,96.37-15.763,158.706-5.374c0,0-83.619-16.079-162.704-0.773
		c-0.106-0.562-0.223-1.121-0.339-1.679c0.351-4.269,4.136-15.332,32.998-20.476c36.184-6.449,54.454-0.716,54.454-0.716
		l-4.299,6.807c0,0,16.121-12.539,42.632-6.09l-7.523,7.882c0,0,11.458-8.212,23.626-10.871c14.057,2.596,26.115,9.43,35.954,20.457
		c5.423,6.077,9.046,12.255,11.231,16.646C379.593,154.212,369.431,155.342,359.514,159.308z"/>
	<path id="XMLID_859_" fill="#270E0B" d="M134.866,54.366c0,0,48.364-27.675,131.479-35.557l-28.123,9.673
		c0,0-62.157,7.344-97.086,31.168L134.866,54.366z"/>
</g>
</svg>
